<svg id="SvgjsSvg1001" width="288" height="288" xmlns="http://www.w3.org/2000/svg" version="1.1" xmlns:xlink="http://www.w3.org/1999/xlink" xmlns:svgjs="http://svgjs.com/svgjs"><defs id="SvgjsDefs1002"></defs><g id="SvgjsG1008" transform="matrix(1,0,0,1,0,0)"><svg xmlns="http://www.w3.org/2000/svg" width="288" height="288" version="1.0" viewBox="0 0 300 42"><g transform="matrix(.1 0 0 -.1 0 42)" fill="#6666ff" class="color000 svgShape"><path d="M64 306 c-12 -31 0 -51 29 -48 l27 3 -3 -76 -2 -76 35 3 35 3 3 73c3 69 4 73 25 70 18 -2 23 2 25 30 l3 32 -86 0 c-65 0 -87 -3 -91 -14z m156
-14 c0 -4 -10 -12 -22 -17 -20 -9 -24 -20 -29 -80 -3 -38 -6 -64 -7 -56 -2 10
-5 11 -15 3 -11 -9 -13 0 -13 49 1 45 -3 64 -16 76 -29 26 -21 33 42 33 33 0
60 -3 60 -8z" fill="#6666ff" class="color000 svgShape"></path><path d="M151 194c0-11 3-14 6-6 3 7 2 16-1 19-3 4-6-2-5-13zM267 313c-4-3-7-51-7-105l0-98 35 0c34 0 35 1 35 39 0 34 3 38 20 34 15-4 20-14 20-39 0-32 2-34 34-34l35 0 3 105 3 106-35-3c-31-3-35-6-38-34-2-22-9-34-24-37-18-5-20-2-16 34 3 38 3 39-28 39-17 0-34-3-37-7zm23-54c0-26 4-38 11-34 6 4 8 13 5 21-3 8-1 24 4 36 8 20 9 18 9-14 1-30 5-38 19-38 11 0 18-7 18-20 0-15-5-18-18-14-15 4-18-1-18-33l-1-38-14 30-13 30-1-29c-1-16-4-26-8-23-11 11-14 167-3 167 6 0 10-18 10-41zm140-44c0-50-4-85-10-85-5 0-10 19-10 42 0 23-3 38-7 35-3-4-6-21-6-39l1-33-14 30c-17 38-17 58-1 74 6 8 7 11 1 8-7-4-9 2-6 18 2 14 9 25 14 25 5 0 7-4 4-8-3-5-1-22 4-38 8-27 8-27 9 14 1 23 6 42 11 42 6 0 10-35 10-85z" fill="#6666ff" class="color000 svgShape"></path><path d="M290 200c0-5 5-10 11-10 5 0 7 5 4 10-3 6-8 10-11 10-2 0-4-4-4-10zM477 313c-4-3-7-51-7-105l0-98 79 0 79 0 4 30c5 30 4 30-44 30-26 0-48 5-48 10 0 6 16 10 35 10 31 0 35 3 35 25 0 22-4 25-35 25-21 0-35 5-35 13 0 8 14 11 45 9 35-3 45-1 45 11 0 9 3 22 6 31 5 14-5 16-73 16-44 0-83-3-86-7zm100-25c-2-7-12-12-21-10-9 2-19-4-22-13-8-20 13-45 37-45 11 0 19-4 19-10 0-5-14-10-31-10-26 0-30-3-27-22 2-19 10-24 46-26 63-5 51-22-17-22-55 0-59 1-61 25-2 37-3 76 0 113 3 30 5 32 42 32 27 0 38-4 35-12zm38 2c-3-5-11-10-16-10-6 0-7 5-4 10 3 6 11 10 16 10 6 0 7-4 4-10zM740 300c-16-16-20-33-20-94 0-91 7-98 91-94 61 3 64 4 66 31 2 26 0 27-43 27l-44 0 0 46 0 46 34-3c40-4 48 2 52 36 3 24 1 25-57 25-46 0-63-4-79-20zm110-10c0-8-19-12-46-9-3 0-12-8-20-18-16-22-18-64-3-95 8-20 16-23 45-20 21 3 34 0 34-7 0-7-23-11-60-11-33 0-60 4-60 10 0 5 8 7 18 4 12-4 10 0-5 12-26 19-31 36-8 28 10-4 15 0 15 11 0 11-5 15-15 11-9-3-15 0-15 9 0 9 6 12 15 9 9-4 15 0 15 10 0 9-6 16-12 16-9 0-8 4 2 10 13 9 13 10 0 10-11 1-10 4 4 15 22 17 96 20 96 5zM915 296c-25-25-27-32-23-97 4-83 11-89 91-89 81 0 97 18 97 108 0 37-4 73-9 81-6 9-32 16-70 19-54 4-62 2-86-22zm129-2c12-5 16-21 16-73 0-39-5-72-12-79-18-18-95-15-102 3-3 8-12 15-21 15-8 0-15 7-15 15 0 22 33 18 48-6 10-15 21-20 37-16 14 2 26-1 28-7 2-6 8-7 13-3 5 4 2 13-6 18-11 8-12 12-2 16 6 2 12 11 12 19 0 8-6 14-12 15-10 0-10 2 0 6 6 2 12 13 12 24 0 13-5 17-17 12-16-6-17-5-3 12 10 12 10 16 2 11-7-4-19-2-27 4-11 9-18 7-32-10-10-11-18-31-18-43 0-13-7-23-17-25-13-2-18 3-18 18 0 17 4 21 18 16 16-6 16-5 0 8-38 28-9 55 59 56 23 0 48-3 57-6zm-36-82c3-38 1-42-20-42-21 0-23 4-20 46 3 35 8 44 21 42 11-2 17-16 19-46zM1113 309c-9-9-13-45-13-106l0-93 75 0c101 0 115 14 115 108 0 37-5 74-10 82-12 20-150 27-167 9zm146-23c16-19 10-132-6-129-7 2-10-4-7-12 5-12-5-15-54-15l-60 0 0 85 1 85 57 0c37 0 62-5 69-14z" fill="#6666ff" class="color000 svgShape"></path><path d="M1164 257c-3-13-4-41-2-63 3-34 6-39 31-42 22-3 30 1 34 17 3 12 10 21 15 21 6 0 4 7-3 16-11 14-10 18 6 30 18 14 18 14-2 14-11 0-23 7-27 15-9 24-45 18-52-8zm54-44c3-39 1-43-20-43-21 0-23 5-23 45 0 40 3 45 20 43 16-2 21-12 23-45zM1317 313c-4-3-7-19-7-35 0-25 3-28 20-23 18 6 20 2 20-38 0-36-4-46-20-50-14-3-20-14-20-32 0-26 0-26 73-23 70 3 72 4 75 31 3 22-1 27-17 27-18 0-21 6-21 47 0 25 3 43 7 40 11-12 33 14 33 39 0 23-3 24-68 24-38 0-72-3-75-7zm113-22c0-5-7-14-15-21-9-7-15-29-15-55 0-26 6-48 15-55 27-22 16-30-35-29-51 2-66 13-30 22 16 4 20 14 20 52 0 50-15 89-31 80-5-4-9-1-9 4 0 6 21 11 50 11 28 0 50-4 50-9zM1492 308c-5-7-10-55-10-105l1-93 34 0c40 0 48 15 37 68l-8 37-5-45-6-45-15 45c-18 54-19 63-6 72 6 4 5 13-4 22-7 9-10 19-6 23 3 3 6 1 6-5 0-7 5-12 10-12 6 0 10 8 10 18 1 13 8 9 31-16 38-43 44-38 13 11-25 39-61 50-82 25z" fill="#6666ff" class="color000 svgShape"></path><path d="M1607 313c-11-11-7-47 8-73l15-25-1 25c-3 41 0 60 11 60 6 0 10-35 10-85 0-50-4-85-10-85-5 0-11 17-11 38-1 22-3 28-6 15-3-13-10-20-18-17-7 3-11 15-9 27 2 12 2 16-2 10-9-21-24-15-25 10-1 16-2 18-6 5-2-10 5-31 16-47 12-17 18-36 15-46-6-14-1-16 32-13l39 3 3 103 3 102-29 0c-16 0-32-3-35-7zM1713 294c-23-23-25-31-21-95 2-47 9-73 18-80 8-5 47-8 85-7l70 3 3 56 3 55-36-4c-29-4-35-8-35-28 0-32 37-33 43-1 2 12 5 3 6-20 0-24-3-43-9-43-5 0-10 4-10 9 0 5-15 15-32 21-31 12-33 14-29 56 3 44 3 44 41 44 34 0 38 3 42 30l5 30-59 0c-50 0-63-4-85-26zm117-5c0-7-14-10-35-7-22 3-35 0-35-8 0-21-29-39-42-26-9 9-7 12 8 12 16 0 17 2 4 10-13 9-13 11 0 20 21 13 100 13 100-1zm-81-74c-5-37 11-65 36-65 13 0 27-4 30-10 4-6-8-10-30-10-22 0-38 6-41 15-4 8-12 15-20 15-17 0-19 30-1 31 10 0 10 2 0 6-21 8-15 39 7 39 15 0 20-6 19-21zM1982 304c-19-13-22-24-22-93 0-46 5-82 12-89 7-7 39-12 75-12l63 0 0 30c0 28-2 30-40 30l-40 0 0 46 0 46 37-4c35-3 38-1 44 30l6 32-56 0c-35 0-65-6-79-16zm108-16c0-4-13-8-28-8-39 0-52-17-52-65 0-44 13-65 42-65 10 0 18-4 18-10 0-5-21-10-47-9-37 0-43 3-28 9 19 9 19 9-2 16-13 3-23 13-23 21 0 8 4 12 9 8 5-3 12-1 16 4 3 5-3 14-12 20-17 10-17 10 0 11 19 0 24 30 5 30-9 0-8 4 2 10 13 9 13 10 0 10-12 1-11 4 4 15 20 15 96 18 96 3zm-3-160c-3-8-6-5-6 6-1 11 2 17 5 13 3-3 4-12 1-19zM2173 308c-19-24-43-112-43-155 0-43 0-43 35-43 31 0 35 3 35 26 0 21 4 25 23 22 17-2 21-9 19-26-3-21 0-23 35-20 36 3 38 5 41 41 2 21-6 67-18 103l-22 64-48 0c-26 0-52-6-57-12zm67-21c0-7-10-17-22-22-31-14-35-50-8-65 16-9 25-8 36 1 16 13 19 45 5 53-10 6-3 46 8 46 3 0 14-22 24-49 19-53 23-121 7-121-5 0-10 6-10 13 0 7-14 18-31 24-25 10-37 9-59-2-16-8-30-20-33-27-3-7-6 8-6 35-1 37 2 47 15 47 10 0 14 5 10 15-10 28 11 65 39 65 14 0 25-6 25-13zm-5-37c-4-6-1-17 5-25 10-13 8-15-12-15-21 0-25 4-20 25 2 14 11 25 19 25 8 0 11-5 8-10z" fill="#6666ff" class="color000 svgShape"></path><path d="M2167 193c-10-9-9-23 1-23 5 0 9 7 9 15 0 17-1 18-10 8zM2347 313c-4-3-7-51-7-105l0-98 35 0 35 0-2 58-1 57-7-50c-7-52-10-48-14 22-3 67-16 62-16-6 0-34-4-60-9-57-4 3-7 25-6 48 6 119 6 123 14 104 7-18 8-18 14-2 4 9 12 14 18 11 6-4 8-13 5-21-3-8 0-11 8-8 7 3 16-2 19-10 4-9 14-16 23-16 12 0 15 7 12 25-3 14-1 28 3 31 5 3 9-2 9-11 0-8 6-18 13-21 17-6 24-134 8-134-6 0-11 11-11 25 0 14-4 25-10 25-5 0-10-4-10-10 0-5-5-10-11-10-6 0-9 9-6 19 3 12-3 27-14 37-18 16-19 16-19-8 0-14 7-31 15-38 8-7 15-23 15-36 0-21 5-24 34-24l35 0 3 105 3 106-35-3c-33-3-35-5-33-36 1-27-1-31-13-21-8 6-14 16-14 21 0 28-63 51-83 31zm163-23c0-5-4-10-10-10-5 0-10 5-10 10 0 6 5 10 10 10 6 0 10-4 10-10zM2591 307c-20-25-41-99-41-149l0-49 33 3c24 2 33 8 35 26 5 32 42 30 42-3 0-22 4-25 35-25l35 0 0 58c0 31-8 78-17 105-17 47-17 47-64 47-27 0-51-6-58-13zm95-18c3-6 12-32 19-59 11-43 11-51-6-77-14-21-19-23-19-10 0 23-47 42-66 26-8-6-14-18-14-26 0-8-6-13-12-10-20 6-6 145 16 159 17 12 74 9 82-3zm29-149c3-5 1-10-4-10-6 0-11 5-11 10 0 6 2 10 4 10 3 0 8-4 11-10z" fill="#6666ff" class="color000 svgShape"></path><path d="M2612 247c-2-39 1-45 20-50 13-4 27-2 32 3 7 7 0 10-17 10-29 0-31 4-17 35 9 19 9 19 16-2 3-13 11-23 16-23 5 0 7 4 3 9-3 5-1 12 4 16 18 11 0 36-21 29-12-3-24-1-28 5-4 7-7-8-8-32zM2767 313c-4-3-7-51-7-105l0-98 85 0 85 0 0 60c0 57-1 60-24 60-29 0-50-23-43-49 3-14 0-17-14-14-16 5-19 15-19 79l0 74-28 0c-16 0-32-3-35-7zm81-161c12-2 22-8 22-13 0-6-8-9-17-7-10 1-23-1-30-5-17-11-21 2-23 73-2 102 1 111 14 30 10-66 14-75 34-78zm-65 26c4-28 2-48-4-48-5 0-9 23-9 52 0 62 6 60 13-4zm127-7c0-41-14-62-24-36-7 20 4 75 15 75 5 0 9-18 9-39zM2481 214c0-11 3-14 6-6 3 7 2 16-1 19-3 4-6-2-5-13z" fill="#6666ff" class="color000 svgShape"></path></g></svg></g></svg>