<svg id="SvgjsSvg1030" width="288" height="288" xmlns="http://www.w3.org/2000/svg" version="1.1" xmlns:xlink="http://www.w3.org/1999/xlink" xmlns:svgjs="http://svgjs.com/svgjs"><defs id="SvgjsDefs1031"></defs><g id="SvgjsG1032"><svg xmlns="http://www.w3.org/2000/svg" width="288" height="288" version="1.0" viewBox="0 0 300 300"><g transform="matrix(.1 0 0 -.1 0 300)" fill="#6666ff" class="color000 svgShape"><path d="M1338 2993c6-2 18-2 25 0 6 3 1 5-13 5-14 0-19-2-12-5zM1638 2993c6-2 18-2 25 0 6 3 1 5-13 5-14 0-19-2-12-5zM1230 2983c-8-2-22-7-30-10-8-4-19-5-23-4-20 4-166-43-160-52 3-6 1-7-4-4-13 8-72-11-95-31-10-8-18-12-18-8 0 8-140-62-162-82-10-8-18-12-18-9 0 4-39-21-87-55-150-105-345-317-435-473-40-68-66-122-70-140-1-11-7-23-11-26-11-8-78-207-82-244-1-16-6-38-10-47-4-9-4-22 0-28 3-5 2-10-3-10-5 0-10-19-10-42 0-40 1-41 9-14 4 16 6 33 3 38-3 4 0 8 6 8 7 0 9 8 5 19-3 11-1 22 4 25 5 4 10 19 10 34 0 15 2 36 5 47 2 11 5 24 5 29 1 4 7 6 14 3 8-3 14 3 14 14 1 10-3 19-8 19-6 0-6 8 1 20 6 11 8 20 4 20-4 0 0 8 8 18 8 9 15 28 16 41 0 13 7 31 14 40 21 26 38 60 38 75 0 7 7 19 15 26 8 7 15 18 15 25 0 17 51 95 62 95 4 0 8 8 8 18 0 9 16 34 35 56 19 21 33 41 31 45-3 4 9 16 25 26 16 11 29 28 29 38 0 9 6 17 13 17 12 0 80 67 85 85 6 19 35 45 44 39 10-6 48 32 48 48 0 5 4 7 9 3 6-3 19 5 30 17 12 12 21 18 21 13 0-5 7 1 16 13 8 12 22 22 30 22 8 0 17 7 20 15 4 8 17 15 30 15 15 0 24 6 24 16 0 10 6 14 15 11 8-4 17-1 21 4 3 6 25 19 49 29 24 10 46 23 49 28 3 6 15 8 26 5 15-4 20 0 20 13 0 15 2 16 9 5 7-10 10-10 13-1 2 7 18 14 35 15 18 1 39 10 49 19 9 10 24 14 35 11 10-4 19-2 19 3 0 14 73 33 84 22 6-6 15-5 25 4 21 18 66 32 57 17-9-13 6-15 20-2 5 5 18 11 29 14 11 3 2 5-20 5-22 0-47-2-55-5zM1388 2983c6-2 18-2 25 0 6 3 1 5-13 5-14 0-19-2-12-5zM1598 2983c7-3 16-2 19 1 4 3-2 6-13 5-11 0-14-3-6-6zM1684 2981c5-7 10-10 13-7 3 2 16 1 30-5 17-6 22-6 17 2-4 8 1 9 17 4 13-4 27-12 30-18 4-5 17-7 30-4 13 3 39-2 61-13 22-10 45-17 52-14 8 3 21-2 30-11 9-9 20-14 25-10 5 3 13 0 16-6 4-5 13-8 21-5 7 3 17-2 22-10 5-8 20-16 35-18 14-1 32-7 39-13 7-6 23-14 35-17 13-4 30-14 38-22 8-8 24-16 35-17 11-1 22-7 24-14 3-7 12-13 20-13 8 0 30-13 48-30 18-16 38-30 44-30 6 0 19-9 29-20 10-11 22-17 26-14 5 3 9-3 9-12 0-10 3-15 6-11 4 3 15-4 25-16 10-12 18-18 19-13 0 11 40-24 40-36 0-12 72-83 93-91 10-4 15-11 12-17-3-6 0-16 7-23 46-46 135-163 144-189 4-10 10-18 15-18 5 0 9-9 9-20 0-10 8-24 18-29 9-6 13-11 9-11-5 0 1-12 12-26 11-15 18-30 16-34-3-5-1-11 5-15 6-4 8-11 4-16-3-5 2-22 12-37 10-15 20-33 21-39 2-7 4-19 6-25 2-7 8-23 15-34 6-12 9-24 5-27-3-4-1-13 6-21 14-17 24-52 23-86 0-14 4-30 9-36 5-6 7-18 4-25-3-8 2-32 9-54l14-40 0 43c0 23-4 42-9 42-5 0-6 7-3 15 3 8 2 19-2 26-4 7-8 26-10 43-3 37-69 236-81 245-4 3-9 15-11 26-2 11-20 49-40 85-20 36-39 70-41 75-5 11-81 117-90 125-3 3-12 17-20 33-8 15-20 27-28 27-7 0-13 6-13 13 0 19-176 186-252 241-38 26-68 44-68 40 0-5-7 2-16 14-8 12-19 20-24 17-5-3-12-1-15 5-8 13-165 93-165 84 0-4-8 0-17 8-21 19-194 78-239 82-17 2-36 6-43 10-6 4-37 10-68 13-43 5-54 3-49-6zM1266 2351c-3-4 7-8 20-9 67-5 76-31 73-218-2-84-7-130-15-142-21-27-15-39 6-13 18 21 20 39 20 180 0 112-4 162-13 175-13 18-84 39-91 27z" fill="#6666ff" class="color000 svgShape"></path><path d="M2350 2350l-255-6 272-1c289-2 308-5 320-51 8-33-3-309-13-325-5-7-1-4 9 6 15 17 17 41 17 177 0 175-6 194-65 201-16 2-145 2-285-1zM614 2340c-59-9-138-34-174-56-27-16-25-16 70 17 83 30 106 32 395 36 149 2 288 5 310 6 22 2-93 4-255 4-162 0-318-3-346-7zM2016 2341c5-6 24-6 44-1l35 8-44 1c-28 1-41-3-35-8zM1889 2329c-39-9-149-55-149-62 0-3 27 6 60 19 32 14 87 31 122 38 37 8 50 14 33 14-16 0-46-4-66-9z" fill="#6666ff" class="color000 svgShape"></path><path d="M515 2281c-38-10-87-25-108-34-45-19-146-108-188-165-32-44-63-122-49-122 6 0 10 7 10 15 0 40 74 155 100 155 5 0-2-12-15-26-50-54-57-96-62-409-4-238-3-288 8-278 10 10 13 79 14 300l1 288 29 54c17 29 36 64 43 77 36 65 147 124 272 144 36 5 208 10 382 10 280 0 318-2 333-16 14-14 16-39 13-180-2-89-6-165-9-169-4-3-124-6-268-6l-261 0-45-43-45-43 0-294c0-316 1-322 53-351 16-9 101-14 290-18 223-4 269-8 278-20 11-17 8-334-3-345-11-11-689-5-709 5-10 6-36 10-58 10-23 0-41 5-41 11 0 5-3 8-8 5-4-2-25 4-47 14-22 11-46 19-52 20-7 0-13 4-13 9 0 5-9 11-20 14-40 10-19-10 43-41 34-17 85-35 112-41 28-5 74-15 103-20 30-6 182-11 348-11 245 0 294-2 294-14 0-8-7-17-16-20-9-3-158-6-332-6-302 0-431 8-470 29-9 6-29 12-43 15-43 9-120 69-155 119-57 82-58 99-59 594 0 253-4 448-9 443-4-4-9-203-9-442-2-376 0-440 15-484 44-138 100-194 253-255 59-23 151-29 468-29l343 0 26 28c14 15 33 33 42 40 14 11 16 38 16 182 0 163-1 169-22 184-19 13-62 16-263 16-135 0-256 5-277 11-67 18-69 30-66 359l3 290 30 27 29 28 249 5c241 5 248 4 245-14-2-12-15-23-33-28-49-13-453-9-459 5-2 7-5 4-5-5-1-17 16-18 223-18 223 0 286 8 286 35 0 8 12 20 28 27l27 13 3 174c2 151 0 176-14 192-16 18-38 19-363 18-296 0-356-3-416-18zM1881 2289c-62-12-140-39-175-60-63-38-159-144-190-209l-31-65 0-465c0-462 0-465 23-522 47-117 163-201 313-227 40-7 198-11 400-11l335 0 25 27c14 16 34 33 44 39 18 10 20 25 23 164 4 164-5 207-42 215-11 3-136 6-276 7-279 3-290 6-310 62-13 39-13 544 0 583 6 16 24 39 40 51 27 20 40 21 272 22 247 1 260-1 227-35-6-6-104-11-241-13-182-2-233 0-239 10-7 10-9 9-9-4 0-17 18-18 229-18 231 0 281 6 281 35 0 9 11 20 25 25 40 15 47 51 43 218-3 138-5 155-22 168-16 11-81 14-360 13-188-1-361-5-385-10zm730-9c18-10 19-23 19-180 0-154-2-170-18-179-12-6-113-8-270-4l-251 5-43-41-43-40-3-293c-2-324-1-331 58-360 30-16 68-18 275-19 132-1 251-4 265-8l25-7 3-169c1-93-1-172-6-177-5-5-166-9-358-9-232-1-338-4-316-10 17-5 165-8 327-7 268 3 295 2 295-13 0-9-7-20-16-23-9-3-158-6-332-6-299 0-441 9-466 29-6 5-25 12-43 16-33 7-105 54-136 89-33 37-66 112-77 177-7 42-10 206-8 479 3 409 3 416 27 474 13 32 37 72 53 90 25 26 28 27 16 6-8-14-22-47-31-74-14-40-14-46-2-36 8 7 15 18 15 25 0 49 88 175 121 175 6 0 8 4 5 9-11 17 136 73 219 84 71 9 677 6 696-3z" fill="#6666ff" class="color000 svgShape"></path><path d="M2601 2214c0-11 3-14 6-6 3 7 2 16-1 19-3 4-6-2-5-13zM1546 1511c2-239 7-438 11-442 11-11 4 794-6 840-5 20-7-151-5-398zM1594 1750c0-58 1-81 3-52 2 28 2 76 0 105-2 28-3 5-3-53zM1570 1026c0-14 5-26 10-26 6 0 10 9 10 19 0 11-4 23-10 26-6 4-10-5-10-19zM1591 968c20-38 112-119 142-125 15-3 30-10 33-14 3-5 15-9 27-9 16 0 8 8-26 25-27 14-53 25-59 25-13 0-108 99-108 112 0 4-5 8-10 8-7 0-6-8 1-22zM1825 810c3-5 18-10 33-10 21 0 24 2 12 10-20 13-53 13-45 0zM121 1904c0-11 3-14 6-6 3 7 2 16-1 19-3 4-6-2-5-13zM2051 1658c1-95 5-216 9-268 5-72 7-30 8 173 1 172-2 267-8 267-6 0-10-63-9-172zM725 1532c0-198 2-231 18-259 11-20 28-35 45-39 15-3 44-10 65-16 21-5 134-8 250-8 117 1 220-1 229-5 12-5 18-24 23-68 9-85 1-247-14-274-8-15-8-23-1-23 22 0 30 55 30 201 0 205 25 189-287 190-137 1-261 4-277 8-16 3-37 17-48 31-17 24-19 46-19 253 0 124-3 228-7 231-4 2-7-98-7-222zM2 1650c0-14 2-19 5-12 2 6 2 18 0 25-3 6-5 1-5-13zM2992 1650c0-14 2-19 5-12 2 6 2 18 0 25-3 6-5 1-5-13zM2982 1590c0-14 2-19 5-12 2 6 2 18 0 25-3 6-5 1-5-13zM7 1401c-4-17-3-21 5-13 5 5 8 16 6 23-3 8-7 3-11-10zM2 1350c0-14 2-19 5-12 2 6 2 18 0 25-3 6-5 1-5-13zM2992 1350c0-14 2-19 5-12 2 6 2 18 0 25-3 6-5 1-5-13zM12 1283c0-24 4-43 9-43 5 0 6-7 3-15-4-8-1-21 5-29 6-7 8-15 5-18-8-9 17-98 28-98 5 0 6-5 3-10-8-13 44-160 57-160 5 0 7-4 4-8-5-8 35-96 72-157 25-42 76-119 82-125 3-3 17-21 30-40 67-97 354-353 374-333 3 3 6 1 6-5 0-12 5-15 129-80 44-23 81-39 81-36 0 4 8 0 18-8 20-19 193-78 238-82 17-2 36-6 43-10 6-4 37-10 69-12 46-4 52-2 33 6-14 6-31 8-38 6-7-3-26 0-41 6-25 10-42 13-95 17-11 0-15 6-11 13 4 7 3 8-5 4-6-4-19-2-27 5-8 6-17 9-21 5-3-3-17 1-30 9-13 9-23 13-23 9 0-4-7-1-15 6-8 6-19 9-25 5-5-3-10-2-10 3 0 12-49 34-61 26-5-3-12 2-15 10-3 9-10 14-14 11-5-3-11-1-15 5-3 5-14 10-24 10-10 0-24 7-31 15-7 8-16 13-20 10-4-3-20 7-36 22-15 14-42 31-59 38-16 8-43 25-58 39-15 14-35 26-44 26-9 0-14 3-11 6 8 7-41 56-51 50-4-3-32 23-61 59-29 35-61 66-71 68-12 3-17 11-13 20 3 10-2 18-15 22-12 3-19 11-16 16 4 5-2 9-11 9-10 0-14 3-11 6 6 6-5 22-53 81-6 7-10 17-10 23 0 6-7 13-15 16-8 4-15 15-15 25 0 10-4 19-10 19-5 0-10 7-10 15 0 9-7 18-16 22-8 3-13 11-10 18 2 7-4 21-15 31-11 10-18 23-15 30 3 7-2 18-9 24-8 7-12 17-9 22 4 6 0 14-7 19-8 4-15 13-15 19-1 5-2 11-4 13-2 2-6 17-14 56-3 12-10 29-17 37-8 10-8 14 0 14 6 0 11 7 11 15 0 8-7 15-15 15-16 0-37 63-28 86 3 8 0 20-6 28-6 7-9 21-5 30 3 9 1 16-6 16-6 0-9 4-6 8 3 5 1 22-3 38-8 27-9 26-9-13zM2980 1300c-2-14-4-29-5-35-2-5-4-14-5-20-1-5-2-14-1-19 1-4-3-13-8-20-5-6-9-22-9-36 0-32-9-69-20-84-5-6-10-18-10-26-1-27-8-48-18-61-6-8-11-24-12-36 0-12-11-35-23-52-12-16-18-34-15-40 4-6 2-11-3-11-6 0-11-3-10-7 2-15-13-53-21-53-11 0-50-67-50-86 0-8-4-14-9-14-5 0-23-22-40-49-17-26-40-56-51-66-11-10-17-21-15-26 3-4-4-10-15-14-11-3-20-15-20-26 0-10-5-19-12-19-6 0-31-20-55-45-23-25-40-45-36-45 3 0-2-9-12-20-10-11-21-17-26-14-4 2-13-5-19-16-6-11-16-20-22-20-5 0-27-14-47-30-57-48-60-50-71-50-6 0-13-7-16-15-4-8-10-12-15-10-4 3-17-3-29-15-11-11-21-19-22-19-8 5-48-14-48-22 0-6-4-7-10-4-5 3-10 1-10-4 0-6-3-10-7-9-14 4-53-13-53-22 0-5-7-7-15-4-8 4-17-1-21-10-3-9-10-14-14-11-5 3-11 1-15-5-4-6-11-8-16-4-5 3-16 0-24-6-8-7-15-9-15-6 0 4-10 1-22-6-13-7-29-11-37-9-8 1-17-2-21-8-7-12-39-22-80-25-14-1-37-7-52-14-15-6-34-9-41-6-7 2-24 0-38-6-19-8-13-10 33-6 32 2 63 8 69 12 7 4 26 8 43 10 45 4 218 63 239 82 9 8 17 12 17 8 0-3 37 13 81 36 124 65 129 68 129 80 0 6 3 8 6 5 13-13 140 88 244 192 91 91 199 227 236 296 6 11 25 45 42 75 17 30 32 64 34 75 2 11 7 23 11 26 11 8 78 207 82 244 1 16 6 38 10 47 4 9 4 21 1 27-3 5-1 11 5 13 6 2 9 20 6 43-2 28-5 32-7 15zM2070 1280c0-24 71-62 87-46 4 3-4 6-16 6-12 0-33 11-46 25-14 13-25 20-25 15zM215 1250c-10-17-13-80-4-80 5 0 6-6 3-13-3-8 3-20 13-28 16-12 17-12 7 1-6 8-11 41-10 73 2 60 1 63-9 47z" fill="#6666ff" class="color000 svgShape"></path><path d="M2205 1219c22-5 134-8 248-7 138 0 212-3 219-10 6-6 13-73 16-161 4-129 2-155-12-176-9-14-12-25-7-25 24 0 31 47 31 192 0 123-3 158-16 176-15 22-17 22-267 21-167-1-239-4-212-10zM123 1085c0-22 2-30 4-17 2 12 2 30 0 40-3 9-5-1-4-23zM222 1092c-1-29 8-62 18-62 6 0 6 10 0 26-6 14-8 29-5 34 3 5 2 11-3 14-5 3-9-3-10-12zM1461 1064c0-11 3-14 6-6 3 7 2 16-1 19-3 4-6-2-5-13zM240 1007c0-12 47-87 55-87 2 0 1 8-4 18-4 9-14 32-22 50-14 32-29 43-29 19zM305 910c-3-6 1-7 9-4 18 7 21 14 7 14-6 0-13-4-16-10zM428 723c6-2 18-2 25 0 6 3 1 5-13 5-14 0-19-2-12-5zM1768 723c7-3 16-2 19 1 4 3-2 6-13 5-11 0-14-3-6-6zM748 703c7-3 16-2 19 1 4 3-2 6-13 5-11 0-14-3-6-6zM1913 703c9-2 23-2 30 0 6 3-1 5-18 5-16 0-22-2-12-5zM2288 703c6-2 18-2 25 0 6 3 1 5-13 5-14 0-19-2-12-5zM2528 703c6-2 18-2 25 0 6 3 1 5-13 5-14 0-19-2-12-5zM1388 13c7-3 16-2 19 1 4 3-2 6-13 5-11 0-14-3-6-6zM1588 13c6-2 18-2 25 0 6 3 1 5-13 5-14 0-19-2-12-5zM1338 3c6-2 18-2 25 0 6 3 1 5-13 5-14 0-19-2-12-5zM1638 3c6-2 18-2 25 0 6 3 1 5-13 5-14 0-19-2-12-5z" fill="#6666ff" class="color000 svgShape"></path></g></svg></g></svg>